# xmcd
#
# Track frame offsets: 
#        150
#        14501
#        26696
#        40956
#        54826
#        68439
#        82247
#        94281
#        106229
#        120551
#        133089
#        144809
#        157220
#        169264
#        182709
#        195039
#        209821
#        225014
#        237731
#
# Disc length: 3352 seconds
#
# Revision: 5
# Processed by: cddbd v1.5.2PL0 Copyright (c) Steve Scherf et al.
# Submitted via: ExactAudioCopy v0.99pb4
#
DISCID=020d1613
DTITLE=Fats Waller - Come And Get It  [CD 9-10]
DYEAR=1900
DGENRE=Jazz, Swing
TTITLE0=Ring Dem Bells
TTITLE1=Twenty-Four Robbers
TTITLE2=I Understand
TTITLE3=Sad Sap Sucker Am I
TTITLE4=Headlines In The News
TTITLE5=Chant Of The Groove
TTITLE6=Come And Get It  (1941)
TTITLE7=Rump Steak Serenade
TTITLE8=Ain't Nothing To It
TTITLE9=Oh Baby, Sweet Baby
TTITLE10=Buck Jumpin'
TTITLE11=That Gets It, Mr. Joe
TTITLE12=The Bells Of San Raquel
TTITLE13=Bessie, Bessie, Bessie
TTITLE14=Clarinet Marmalade
TTITLE15=Winter Weather
TTITLE16=Cash For Your Trash
TTITLE17=Don't Give Me That Jive
TTITLE18=Your Socks Don't Match
EXTD=
EXTT0=
EXTT1=
EXTT2=
EXTT3=
EXTT4=
EXTT5=
EXTT6=
EXTT7=
EXTT8=
EXTT9=
EXTT10=
EXTT11=
EXTT12=
EXTT13=
EXTT14=
EXTT15=
EXTT16=
EXTT17=
EXTT18=
PLAYORDER=
